<svg width="63" height="14" viewBox="0 0 63 14" fill="none" xmlns="http://www.w3.org/2000/svg">
<path fill-rule="evenodd" clip-rule="evenodd" d="M28.0948 2.04493C28.1006 2.69823 27.5727 3.23247 26.9155 3.23821C26.2584 3.24396 25.7211 2.719 25.7153 2.06572C25.7095 1.41242 26.2375 0.878179 26.8946 0.872437C27.5517 0.866695 28.0891 1.39164 28.0948 2.04493ZM19.277 13.0189V6.83611C19.277 6.79634 19.247 6.76652 19.207 6.76652H17.1373C17.0974 6.76652 17.0674 6.7367 17.0674 6.69694V4.74867C17.0674 4.7089 17.0974 4.67908 17.1373 4.67908H19.207C19.247 4.67908 19.277 4.64927 19.277 4.60949V3.40673C19.277 2.64133 19.4969 2.04492 19.9368 1.60755C20.3768 1.17017 20.9767 0.951495 21.7465 0.951495H23.8961C23.9361 0.951495 23.9662 0.981318 23.9662 1.02108V2.84014C23.9662 2.8799 23.9361 2.90971 23.8961 2.90971H22.2564C22.0865 2.90971 21.9165 2.9793 21.8165 3.10852C21.7565 3.18804 21.7265 3.27751 21.7265 3.37691V4.60949C21.7265 4.64927 21.7565 4.67908 21.7966 4.67908H28.1153C28.1554 4.67908 28.1854 4.7089 28.1854 4.74867V13.0189C28.1854 13.0586 28.1554 13.0886 28.1153 13.0886H25.6959C25.6558 13.0886 25.6258 13.0586 25.6258 13.0189V6.83611C25.6258 6.79634 25.5958 6.76652 25.5558 6.76652H21.9065C21.8665 6.76652 21.8364 6.79634 21.8364 6.83611V13.0189C21.8364 13.0586 21.8065 13.0886 21.7665 13.0886H19.347C19.3069 13.0886 19.277 13.0487 19.277 13.0189ZM44.2132 4.6898H46.2328C46.2828 4.6898 46.3328 4.72955 46.3328 4.7892V6.65796C46.3328 6.70766 46.2927 6.75736 46.2328 6.75736H44.2132V12.98C44.2132 13.0296 44.1732 13.0793 44.1132 13.0793H41.7337C41.6836 13.0793 41.6336 13.0397 41.6336 12.98V6.75736H39.9539C39.904 6.75736 39.854 6.7176 39.854 6.65796V4.7892C39.854 4.73949 39.8939 4.6898 39.9539 4.6898H41.6336V1.94629C41.6336 1.89659 41.6736 1.84689 41.7337 1.84689H44.1132C44.1632 1.84689 44.2132 1.88665 44.2132 1.94629V4.6898ZM30.9167 13.0109C30.9167 13.0607 30.9568 13.1103 31.0167 13.1103H33.3762C33.4263 13.1103 33.4762 13.0705 33.4762 13.0109V8.31909C33.4762 8.02089 33.5562 7.7525 33.6962 7.504C33.8461 7.25549 34.0362 7.05669 34.2861 6.90758C34.5361 6.75849 34.816 6.68889 35.136 6.68889C35.4459 6.68889 35.7258 6.75849 35.9758 6.90758C36.2257 7.05669 36.4257 7.25549 36.5657 7.504C36.7157 7.7525 36.7856 8.02089 36.7856 8.31909V13.001C36.7856 13.0506 36.8256 13.1003 36.8857 13.1003H39.2452C39.2951 13.1003 39.3452 13.0607 39.3452 13.001V8.24951C39.3452 7.54376 39.1753 6.90758 38.8453 6.34098C38.5153 5.7744 38.0354 5.31715 37.4155 4.97918C36.7957 4.64122 36.0358 4.47222 35.156 4.47222C34.2861 4.47222 33.5263 4.64122 32.8964 4.97918C32.2564 5.31715 31.7665 5.7744 31.4266 6.34098C31.0867 6.90758 30.9167 7.54376 30.9167 8.24951V13.0109ZM51.0608 13.0881C50.2109 13.0881 49.4411 12.8992 48.7612 12.5214C48.0813 12.1438 47.5414 11.6367 47.1515 10.9807C46.7616 10.3246 46.5616 9.58906 46.5616 8.77396C46.5616 7.94892 46.7616 7.21335 47.1515 6.56723C47.5414 5.92111 48.0813 5.40423 48.7612 5.0265C49.4411 4.64877 50.201 4.45991 51.0608 4.45991C51.9106 4.45991 52.6705 4.64877 53.3503 5.0265C54.0203 5.40423 54.5602 5.92111 54.9501 6.56723C55.34 7.21335 55.5399 7.94892 55.5399 8.77396C55.5399 9.58906 55.34 10.3246 54.9501 10.9807C54.5602 11.6367 54.0203 12.1536 53.3404 12.5214C52.6605 12.8992 51.9007 13.0881 51.0608 13.0881ZM51.0608 10.9111C51.4607 10.9111 51.8007 10.8117 52.1006 10.6229C52.3905 10.4339 52.6205 10.1755 52.7805 9.84746C52.9404 9.52942 53.0204 9.16163 53.0204 8.75408C53.0204 8.35646 52.9404 7.99863 52.7805 7.68053C52.6205 7.36244 52.3905 7.104 52.1006 6.9052C51.8106 6.71633 51.4607 6.61693 51.0608 6.61693C50.6609 6.61693 50.3109 6.71633 50.021 6.9052C49.7211 7.09406 49.491 7.35251 49.3311 7.68053C49.1711 7.99863 49.0912 8.35646 49.0912 8.75408C49.0912 9.16163 49.1711 9.52942 49.3311 9.84746C49.491 10.1656 49.7211 10.424 50.021 10.6229C50.3109 10.8216 50.6609 10.9111 51.0608 10.9111ZM58.7102 12.5617C59.4101 12.9393 60.2098 13.1283 61.1197 13.1283V13.1084H62.3296C62.3795 13.1084 62.4295 13.0686 62.4295 13.0089V11.0209C62.4295 10.9712 62.3895 10.9216 62.3296 10.9216H61.2297C60.7898 10.9216 60.4098 10.8321 60.0898 10.6432C59.77 10.4643 59.53 10.2059 59.3501 9.88771C59.18 9.56965 59.0901 9.21182 59.0901 8.80426C59.0901 8.40665 59.17 8.03886 59.3501 7.72077C59.53 7.40269 59.77 7.15418 60.0898 6.96532C60.4098 6.77645 60.7898 6.68699 61.2297 6.68699H62.3296C62.3795 6.68699 62.4295 6.64724 62.4295 6.58759V4.57966C62.4295 4.52996 62.3895 4.48026 62.3296 4.48026H61.1197C60.2198 4.48026 59.4101 4.67907 58.7102 5.0568C58.0104 5.43452 57.4604 5.95141 57.0505 6.59752C56.6405 7.24365 56.4406 7.97922 56.4406 8.8142C56.4406 9.64918 56.6405 10.3847 57.0505 11.0308C57.4504 11.677 58.0104 12.1839 58.7102 12.5617Z" fill="#060235"/>
<path d="M8.68788 6.23997C9.54773 5.37517 9.54773 3.98354 8.71787 3.12868L6.08836 0.484587C5.44847 -0.161529 4.40864 -0.161529 3.76877 0.484587C3.12888 1.1307 3.12888 2.17442 3.76877 2.8106L7.93801 6.99543L8.68788 6.23997Z" fill="#A5B0FF"/>
<path d="M11.0176 5.41417L8.68813 3.08815C9.55796 3.96289 9.55796 5.36447 8.68813 6.23921L3.759 11.1894C3.11911 11.8356 3.11911 12.8793 3.759 13.5155C4.39889 14.1615 5.4387 14.1615 6.07859 13.5155L11.0076 8.56522C11.8776 7.70042 11.8776 6.28891 11.0176 5.41417Z" fill="#3753FF"/>
<path d="M1.6397 8.61581C2.54529 8.61581 3.27941 7.8815 3.27941 6.97567C3.27941 6.06985 2.54529 5.33554 1.6397 5.33554C0.734121 5.33554 0 6.06985 0 6.97567C0 7.8815 0.734121 8.61581 1.6397 8.61581Z" fill="#3753FF"/>
</svg>
