<svg width="61" height="15" viewBox="0 0 61 15" fill="none" xmlns="http://www.w3.org/2000/svg">
<path fill-rule="evenodd" clip-rule="evenodd" d="M12.2664 0.150009C12.1288 0.150009 11.9923 0.175838 11.8574 0.229109C11.6255 0.325965 11.4432 0.484163 11.3114 0.705319L6.69068 8.59154L2.06888 0.705319C1.93759 0.484163 1.75524 0.325965 1.5234 0.229109C1.38794 0.175838 1.25196 0.150009 1.11441 0.150009C1.01647 0.150009 0.918001 0.163461 0.818486 0.189828C0.574139 0.261394 0.37616 0.400759 0.225592 0.607386C0.0750238 0.808631 0 1.03839 0 1.29722V12.97C0 13.2869 0.109931 13.556 0.329271 13.7766C0.542361 14.0026 0.802339 14.1167 1.11025 14.1167C1.41659 14.1167 1.68022 14.0026 1.89956 13.7766C2.11942 13.556 2.22883 13.2869 2.22883 12.97V5.41469C2.22883 5.41469 5.77994 11.4666 5.79767 11.4967C5.89876 11.6743 6.06127 11.7916 6.23894 11.8755C6.37648 11.9412 6.52916 11.9778 6.69068 11.9778C6.85115 11.9778 7.00431 11.9412 7.14132 11.8755C7.31951 11.7916 7.4805 11.6705 7.58312 11.4956C7.59721 11.4725 11.152 5.41469 11.152 5.41469V12.97C11.152 13.2869 11.2619 13.556 11.4807 13.7766C11.7001 14.0026 11.9637 14.1167 12.2711 14.1167C12.5779 14.1167 12.8384 14.0026 13.051 13.7766C13.2703 13.556 13.3803 13.2869 13.3803 12.97V1.29722C13.3803 1.03839 13.3053 0.808631 13.1547 0.607386C13.0041 0.400759 12.8067 0.261394 12.5618 0.189828C12.4633 0.163461 12.3643 0.150009 12.2664 0.150009ZM23.6534 0.150009C23.0115 0.150009 22.775 0.521829 22.6437 0.807017L17.304 12.4803C17.1722 12.7661 17.1576 13.0593 17.2608 13.3607C17.3639 13.662 17.5536 13.881 17.8297 14.0177C18.1053 14.1538 18.3893 14.1683 18.681 14.0623C18.9722 13.9552 19.1832 13.7589 19.315 13.4736L23.6539 3.99305L27.9918 13.4736C28.1236 13.7589 28.3356 13.9552 28.6269 14.0623C28.9181 14.1683 29.2015 14.1538 29.4771 14.0177C29.7532 13.881 29.9429 13.662 30.046 13.3607C30.1492 13.0593 30.1351 12.7661 30.0028 12.4803L24.6641 0.807017C24.5323 0.521829 24.2354 0.150009 23.6534 0.150009ZM40.0965 0.150009C38.236 0.150009 36.6444 0.83231 35.32 2.19744C34.0024 3.56903 33.3438 5.21828 33.3438 7.15486C33.3438 9.08178 34.0024 10.731 35.32 12.1026C36.6444 13.4677 38.236 14.15 40.0965 14.15C41.8429 14.15 43.3626 13.5425 44.6553 12.3275C44.8824 12.1123 45.0022 11.8443 45.0148 11.5241C45.0267 11.204 44.9298 10.9274 44.7209 10.6912C44.5135 10.4496 44.2551 10.3226 43.9457 10.3097C43.6367 10.2963 43.3689 10.3979 43.1417 10.6126C42.2842 11.4235 41.2698 11.8276 40.0965 11.8276C38.8545 11.8276 37.7916 11.3708 36.9091 10.4566C36.0265 9.54183 35.5852 8.44196 35.5852 7.14465C35.5852 5.85807 36.0265 4.75767 36.9091 3.84346C37.7916 2.9287 38.8545 2.47187 40.0965 2.47187C41.2698 2.47187 42.2842 2.87651 43.1417 3.68687C43.3689 3.90211 43.6367 4.00327 43.9457 3.99089C44.2551 3.97744 44.5135 3.84991 44.7209 3.60885C44.9298 3.37316 45.0267 3.09605 45.0148 2.77589C45.0022 2.45519 44.8824 2.18775 44.6553 1.97252C43.3626 0.756972 41.8429 0.150009 40.0965 0.150009ZM59.5992 0.150009C59.2963 0.150009 59.0375 0.261932 58.8214 0.485777C58.6047 0.710163 58.4974 0.979208 58.4974 1.29291V6.13251H51.6898V1.29291C51.6898 0.979208 51.5845 0.710163 51.3751 0.485777C51.1589 0.261932 50.8994 0.150009 50.5973 0.150009C50.294 0.150009 50.0351 0.261932 49.8194 0.485777C49.6032 0.710163 49.4948 0.979208 49.4948 1.29291V13.0071C49.4948 13.3208 49.6032 13.5904 49.8194 13.8137C50.0351 14.0381 50.294 14.15 50.5973 14.15C50.8994 14.15 51.1589 14.0381 51.3751 13.8137C51.5845 13.5904 51.6898 13.3208 51.6898 13.0071V8.40862H58.4974V13.0071C58.4974 13.3208 58.6047 13.5904 58.8214 13.8137C59.0375 14.0381 59.2963 14.15 59.5992 14.15C59.9011 14.15 60.1604 14.0381 60.3771 13.8137C60.5933 13.5904 60.7016 13.3208 60.7016 13.0071V1.29291C60.7016 0.979208 60.5933 0.710163 60.3771 0.485777C60.1604 0.261932 59.9011 0.150009 59.5992 0.150009Z" fill="#613DD2"/>
</svg>
