<svg width="42" height="14" viewBox="0 0 42 14" fill="none" xmlns="http://www.w3.org/2000/svg">
<g clip-path="url(#clip0_3_8)">
<path d="M2.76666 11.7827C2.88962 11.7827 2.98938 11.6824 2.98938 11.5586C2.98938 11.4349 2.88962 11.3344 2.76666 11.3344C2.64404 11.3344 2.54425 11.4349 2.54425 11.5586C2.54425 11.6824 2.64404 11.7827 2.76666 11.7827Z" fill="#009CDD"/>
<path d="M19.9933 13.5389C20.1163 13.5389 20.216 13.4386 20.216 13.3149C20.216 13.1911 20.1163 13.0906 19.9933 13.0906C19.8706 13.0906 19.771 13.1911 19.771 13.3149C19.771 13.4386 19.8706 13.5389 19.9933 13.5389Z" fill="#6D2077"/>
<path d="M9.45549 12.1812L9.45539 12.1804C9.45487 11.9307 9.36816 11.7199 9.21078 11.5776L9.19969 11.5676L9.1972 11.5654H9.19662C9.04856 11.4382 8.84803 11.3712 8.61024 11.3689C8.60935 11.3687 8.60732 11.3686 8.60508 11.3686C8.6029 11.3686 8.60066 11.3687 8.59842 11.369L8.5967 11.3689C8.58957 11.3689 8.58479 11.3691 8.58125 11.3692C8.57849 11.3691 8.57401 11.3689 8.56881 11.3689L8.56522 11.369C8.5634 11.3688 8.56111 11.3686 8.55824 11.3686H8.55736C8.55762 11.3686 8.55694 11.3686 8.55616 11.3686C8.55491 11.3686 8.5533 11.3686 8.55153 11.3689C8.31431 11.3715 8.11451 11.4383 7.96686 11.5654H7.96618L7.95265 11.5776C7.79584 11.7193 7.70914 11.929 7.70799 12.1775L7.70768 12.1787L7.70648 13.465C7.70648 13.4822 7.71377 13.4991 7.72657 13.5111C7.73943 13.5233 7.75738 13.5303 7.77544 13.5303H8.00439C8.02239 13.5303 8.04014 13.5233 8.0531 13.5111C8.06611 13.4991 8.07329 13.4822 8.07329 13.465L8.07381 12.2222C8.07517 12.04 8.12175 11.911 8.20585 11.8257C8.28725 11.7431 8.41158 11.6965 8.58265 11.6932C8.75211 11.6965 8.87618 11.7431 8.95769 11.8257C9.04169 11.911 9.08827 12.04 9.08972 12.2225L9.08936 13.465C9.08936 13.4822 9.0967 13.4991 9.10955 13.5111C9.12241 13.5233 9.14031 13.5303 9.15837 13.5303H9.38763C9.40569 13.5303 9.42349 13.5233 9.43639 13.5111C9.44951 13.4991 9.45664 13.4822 9.45664 13.465L9.45549 12.1812Z" fill="#D00070"/>
<path d="M17.4379 12.1812L17.4378 12.1804C17.4373 11.9307 17.3506 11.7199 17.1932 11.5776L17.1821 11.5676L17.1796 11.5654C17.0315 11.4382 16.8304 11.3712 16.5926 11.3689C16.5918 11.3687 16.5898 11.3686 16.5875 11.3686C16.5853 11.3686 16.5831 11.3687 16.5809 11.369L16.5791 11.3689C16.572 11.3689 16.5672 11.3691 16.5637 11.3692C16.5609 11.3691 16.5564 11.3689 16.5512 11.3689L16.5476 11.369C16.5458 11.3688 16.5436 11.3686 16.5407 11.3686H16.5398C16.5401 11.3686 16.5394 11.3686 16.5386 11.3686C16.5374 11.3686 16.5357 11.3686 16.5339 11.3689C16.2967 11.3715 16.0969 11.4383 15.9493 11.5654H15.9485L15.9351 11.5776C15.7783 11.7193 15.6916 11.929 15.6905 12.1775L15.6901 12.1787L15.6888 13.465C15.6888 13.4822 15.6962 13.4991 15.709 13.5111C15.7218 13.5233 15.7398 13.5303 15.7579 13.5303H15.9867C16.0049 13.5303 16.0226 13.5233 16.0356 13.5111C16.0485 13.4991 16.0557 13.4822 16.0557 13.465L16.0562 12.2222C16.0576 12.04 16.1042 11.911 16.1882 11.8257C16.2697 11.7431 16.394 11.6965 16.5651 11.6932C16.7345 11.6965 16.8586 11.7431 16.9401 11.8257C17.024 11.911 17.0707 12.04 17.0721 12.2225L17.0718 13.465C17.0718 13.4822 17.0791 13.4991 17.0919 13.5111C17.1048 13.5233 17.1227 13.5303 17.1408 13.5303H17.3701C17.3881 13.5303 17.4059 13.5233 17.4188 13.5111C17.4319 13.4991 17.439 13.4822 17.439 13.465L17.4379 12.1812Z" fill="#D00070"/>
<path d="M13.1576 12.4554V12.4599V12.4652C13.1571 12.6701 13.1353 12.8702 13.0574 13.0135C12.9808 13.1513 12.8577 13.2433 12.6186 13.247C12.617 13.2468 12.6144 13.2468 12.6097 13.247H12.6057C12.3649 13.2445 12.2401 13.1523 12.1632 13.0132C12.0846 12.8694 12.0627 12.6676 12.0627 12.4615V12.4491C12.0629 12.2443 12.0846 12.08 12.1632 11.9368C12.2401 11.7977 12.3649 11.7053 12.6057 11.7031H12.6073H12.6112H12.6149C12.8558 11.7053 12.9801 11.7975 13.0577 11.9371C13.1357 12.08 13.1576 12.2443 13.1576 12.4491V12.4554ZM13.2254 11.5883C13.2241 11.5868 13.223 11.5853 13.2213 11.5838C13.0909 11.4636 12.8824 11.3891 12.6408 11.3888C12.6376 11.3884 12.6325 11.3884 12.6278 11.3884C12.4291 11.3883 12.2332 11.4298 12.0629 11.5756L12.0627 11.4478L12.063 10.7996C12.063 10.7825 12.0557 10.7657 12.0428 10.7537C12.03 10.7416 12.0121 10.7346 11.994 10.7346H11.7684C11.7505 10.7346 11.7327 10.7416 11.7196 10.7537C11.7066 10.7657 11.6996 10.7825 11.6996 10.7996V11.4478L11.6997 12.8238L11.6996 13.4685C11.6996 13.4856 11.7069 13.5024 11.7196 13.5143C11.7326 13.5265 11.7505 13.5335 11.7686 13.5335H11.9941C12.0121 13.5335 12.0299 13.5265 12.0428 13.5143C12.056 13.5024 12.0631 13.4856 12.0631 13.4685V13.3352C12.2137 13.5035 12.4297 13.5615 12.6278 13.5615H12.6418C12.8828 13.5607 13.0913 13.4862 13.2213 13.3661C13.4643 13.136 13.5199 12.7834 13.5206 12.4555C13.52 12.1294 13.4643 11.8175 13.2254 11.5883Z" fill="#D00070"/>
<path d="M7.0726 12.7489C7.07208 12.921 7.0344 13.016 6.98381 13.0603C6.86182 13.173 6.71074 13.1899 6.52676 13.1902H6.52473H6.52129C6.34413 13.1904 6.22766 13.1597 6.16167 13.1119C6.09895 13.0665 6.06658 13.0017 6.06502 12.8902V12.8852C6.06622 12.7745 6.09984 12.7054 6.16323 12.6567C6.22958 12.6062 6.34132 12.5735 6.50859 12.5735H6.51005H7.0726V12.7489ZM7.45133 12.0858V12.0843C7.45143 11.8662 7.37889 11.6792 7.22676 11.5543C7.07354 11.4284 6.85365 11.3693 6.57058 11.3692H6.56038H6.55653C6.25935 11.3683 6.02323 11.4331 5.84352 11.6243L5.84279 11.6236L5.83254 11.6359C5.819 11.6509 5.80573 11.6663 5.79293 11.6828C5.79293 11.6828 5.79267 11.6832 5.79257 11.6833L5.77419 11.7051C5.76316 11.7182 5.7578 11.7357 5.76004 11.7533C5.76196 11.7711 5.77097 11.7881 5.78465 11.7999L5.79501 11.8089C5.79902 11.8137 5.80339 11.8181 5.80828 11.8222L5.84846 11.8551L5.95541 11.9477C5.9691 11.9596 5.98716 11.966 6.00465 11.9651C6.02203 11.9644 6.03842 11.9565 6.04935 11.9434L6.11805 11.8618C6.16083 11.8154 6.20476 11.7824 6.25784 11.7592C6.33284 11.7263 6.42912 11.7109 6.56819 11.7096H6.56985L6.57454 11.7094C6.7723 11.7098 6.89539 11.7501 6.96586 11.8119C7.03612 11.8728 7.07182 11.9647 7.07234 12.1077C7.07234 12.1086 7.07234 12.1111 7.0726 12.1144V12.2492H6.48528C6.24837 12.2497 6.05019 12.3032 5.90717 12.4148C5.76514 12.5239 5.68593 12.6919 5.68582 12.8875L5.68593 12.8949C5.68624 13.0579 5.74749 13.2178 5.85877 13.3288C6.00912 13.477 6.20934 13.5308 6.51193 13.5308H6.51531H6.66863C6.94572 13.531 7.14448 13.4625 7.27251 13.3245C7.40028 13.1864 7.45143 12.9868 7.45143 12.7385V12.0896L7.45133 12.0858Z" fill="#D00070"/>
<path d="M14.0499 12.8927V12.8877C14.0511 12.7771 14.0847 12.708 14.1481 12.6595C14.2145 12.6089 14.3262 12.5762 14.4934 12.5762H14.4949H15.0575V12.7515C15.0569 12.9235 15.0193 13.0184 14.9687 13.0628C14.8467 13.1753 14.6956 13.1922 14.5115 13.1926H14.5095H14.5062C14.3289 13.1928 14.2126 13.1621 14.1466 13.1142C14.0837 13.0689 14.0515 13.0042 14.0499 12.8927ZM15.4362 12.0888V12.0874C15.4363 11.8693 15.3638 11.6825 15.2116 11.5576C15.0585 11.4319 14.8385 11.3727 14.5556 11.3726H14.5453H14.5414C14.2441 11.3719 14.0081 11.4365 13.8285 11.6276L13.8277 11.627L13.8174 11.6393C13.8039 11.6542 13.7906 11.6697 13.7777 11.6861C13.7776 11.6863 13.7776 11.6865 13.7775 11.6866L13.759 11.7084C13.7481 11.7214 13.7426 11.739 13.7449 11.7566C13.7469 11.7743 13.7558 11.7913 13.7695 11.8031L13.7799 11.8121C13.7839 11.8168 13.7883 11.8213 13.7931 11.8254L13.8334 11.8584L13.9403 11.9508C13.954 11.9627 13.972 11.9691 13.9895 11.9682C14.0069 11.9675 14.0232 11.9596 14.0342 11.9465L14.1028 11.8651C14.1457 11.8187 14.1896 11.7856 14.2427 11.7624C14.3177 11.7296 14.414 11.7141 14.553 11.7128L14.5547 11.7128L14.5594 11.7126C14.7572 11.7131 14.8802 11.7533 14.9507 11.8151C15.021 11.8759 15.0566 11.9678 15.0572 12.1106C15.0572 12.1116 15.0572 12.1141 15.0575 12.1173V12.2521H14.4702C14.2332 12.2527 14.0351 12.3061 13.8921 12.4176C13.75 12.5267 13.6708 12.6946 13.6707 12.89L13.6708 12.8975C13.6711 13.0604 13.7323 13.2201 13.8437 13.331C13.994 13.4791 14.1942 13.533 14.4968 13.533H14.5002H14.6535C14.9306 13.5332 15.1293 13.4647 15.2573 13.3267C15.3851 13.1888 15.4363 12.9893 15.4363 12.7412V12.0926L15.4362 12.0888Z" fill="#D00070"/>
<path d="M3.92279 11.3767H3.53594L3.53578 10.9846L3.53552 10.7949C3.53552 10.7608 3.5057 10.7331 3.46891 10.7331H3.2363C3.21878 10.7331 3.2015 10.7396 3.18929 10.7511C3.17682 10.7627 3.16949 10.7787 3.16949 10.7949V11.1445L3.16968 12.9826C3.16984 13.1319 3.21283 13.2663 3.30737 13.3682C3.39745 13.4667 3.54343 13.5282 3.71211 13.5282H3.71274H3.82479V13.5268H3.92279C3.93986 13.5268 3.95646 13.5194 3.96838 13.5065C3.98045 13.4936 3.98738 13.4756 3.98738 13.4573V13.2301C3.98738 13.2119 3.98045 13.194 3.96838 13.181C3.95646 13.168 3.93986 13.1607 3.92279 13.1607H3.74303C3.70659 13.1593 3.6774 13.1548 3.65195 13.1458C3.63571 13.1403 3.62567 13.134 3.61635 13.128C3.60604 13.1208 3.60037 13.1173 3.59028 13.1068C3.55567 13.0706 3.53651 13.0133 3.53594 12.9279V11.743H3.92279C3.93986 11.743 3.95646 11.7355 3.96838 11.7226C3.98045 11.7096 3.98738 11.6917 3.98738 11.6734V11.4462C3.98738 11.4281 3.98045 11.4102 3.96838 11.3971C3.95646 11.384 3.93986 11.3767 3.92279 11.3767Z" fill="#D00070"/>
<path d="M5.59099 11.6452L5.56955 11.6213C5.56866 11.6185 5.5671 11.6159 5.5645 11.6132L5.55149 11.5999L5.53369 11.5813L5.51901 11.565L5.51844 11.5657C5.38682 11.4272 5.22303 11.3688 5.04863 11.3686C5.04504 11.3686 5.04083 11.3687 5.03494 11.3688C4.91108 11.3688 4.76489 11.4245 4.67719 11.5301L4.61671 11.6018V11.5719V11.4414C4.61671 11.4243 4.60943 11.4074 4.59657 11.3956C4.58367 11.3834 4.56581 11.3764 4.54765 11.3764H4.32219C4.30408 11.3764 4.28628 11.3834 4.27338 11.3956C4.26042 11.4074 4.25323 11.4243 4.25323 11.4414V11.5719V13.466C4.25323 13.4832 4.26057 13.5 4.27338 13.5119C4.28618 13.5241 4.30408 13.5311 4.32219 13.5311H4.36112C4.36232 13.5311 4.36362 13.5314 4.36487 13.5314H4.5069C4.50825 13.5314 4.50945 13.5311 4.51075 13.5311H4.54776C4.56581 13.5311 4.58356 13.5241 4.59657 13.5119C4.60958 13.5 4.61671 13.4832 4.61671 13.466V13.4309C4.61671 13.4305 4.61682 13.4301 4.61682 13.4296V12.2285C4.61682 12.2269 4.61671 12.2254 4.61671 12.2238V12.1266C4.62353 12.015 4.65892 11.9144 4.71706 11.8414C4.7793 11.7635 4.87054 11.7128 4.99357 11.7125C5.05873 11.7125 5.10156 11.7203 5.13862 11.7357C5.17437 11.7513 5.21086 11.778 5.25868 11.8274L5.26951 11.8385L5.31854 11.8931C5.33004 11.906 5.3469 11.9136 5.3646 11.9138C5.38234 11.9142 5.4004 11.9072 5.41404 11.8948L5.58308 11.7409C5.59656 11.7287 5.6052 11.7113 5.60671 11.6932C5.60842 11.6754 5.60249 11.658 5.59099 11.6452Z" fill="#D00070"/>
<path d="M11.2734 12.4235C11.2724 12.4228 11.2714 12.4223 11.2706 12.4217C11.1389 12.3297 10.9719 12.2977 10.7924 12.2824L10.4557 12.2541C10.3157 12.2423 10.2289 12.2131 10.1784 12.1735C10.1357 12.141 10.1092 12.0883 10.1085 12.0075V12.0057V12.0015C10.1092 11.9058 10.1464 11.8363 10.2124 11.7891C10.2828 11.7383 10.3956 11.706 10.5552 11.7058H10.5566C10.7602 11.7062 10.9288 11.7537 11.0693 11.844L11.1545 11.9042C11.1682 11.9138 11.1856 11.9173 11.2023 11.9134C11.2193 11.9097 11.2348 11.8992 11.2449 11.8845L11.3706 11.7012C11.3808 11.6865 11.3852 11.668 11.3827 11.6508C11.3814 11.6413 11.3777 11.6324 11.3725 11.6246C11.3679 11.6157 11.3613 11.6078 11.3525 11.6015L11.3381 11.5912C11.1374 11.4481 10.8575 11.3679 10.5558 11.3675C10.3143 11.3675 10.1082 11.4256 9.95861 11.5368C9.81029 11.6462 9.72306 11.8116 9.72296 11.9998L9.72306 12.0024V12.0036L9.72296 12.0087C9.72296 12.1751 9.78463 12.3221 9.90777 12.4223C10.0322 12.5241 10.2072 12.5783 10.4278 12.5961L10.7738 12.6241C10.9006 12.6357 10.9799 12.6639 11.0265 12.7029C11.0673 12.736 11.0932 12.7884 11.0935 12.872V12.8765V12.8772C11.0926 12.9825 11.0501 13.0552 10.971 13.1056C10.886 13.1595 10.7479 13.1925 10.5558 13.1925H10.5545C10.5538 13.1925 10.5526 13.1926 10.5509 13.1927H10.5492C10.2959 13.1915 10.1158 13.1345 9.97558 13.0187L9.90261 12.957C9.88955 12.9459 9.87217 12.9407 9.85468 12.943C9.83714 12.9453 9.82038 12.9546 9.80878 12.9686L9.66389 13.1437C9.65223 13.1578 9.64614 13.1761 9.64718 13.1939C9.64796 13.2116 9.65608 13.2281 9.66914 13.2392L9.73789 13.2973C9.7393 13.2983 9.74039 13.2995 9.74174 13.3006L9.7507 13.3081L9.75132 13.3074C9.96403 13.4614 10.2295 13.5351 10.5545 13.5351H10.5603C10.8283 13.5349 11.0544 13.4768 11.2194 13.3629C11.3825 13.2506 11.4798 13.0772 11.4795 12.8772V12.8672C11.4798 12.6656 11.4017 12.5136 11.2734 12.4235Z" fill="#D00070"/>
<path d="M19.578 13.4404L19.2958 13.0421L18.7303 12.2164L19.1698 11.7496L19.4257 11.4792L19.4412 11.4619C19.4708 11.4322 19.4563 11.4013 19.4434 11.3893C19.4306 11.3772 19.4127 11.3701 19.3946 11.3701H19.1008C19.0834 11.3701 19.0607 11.3836 19.0479 11.395C19.0481 11.395 19.0476 11.3951 19.0479 11.395L18.0612 12.4474V11.568V10.792C18.0612 10.7749 18.0538 10.758 18.0411 10.7461C18.0281 10.7339 18.0103 10.7269 17.9921 10.7269H17.7666C17.7486 10.7269 17.7308 10.7339 17.7179 10.7461C17.7048 10.758 17.6977 10.7749 17.6977 10.792V11.568V13.4657C17.6977 13.4828 17.705 13.4997 17.7178 13.5117C17.7307 13.5238 17.7486 13.5309 17.7667 13.5309H17.9922C18.0103 13.5309 18.0281 13.5238 18.0411 13.5117C18.0541 13.4997 18.0612 13.4828 18.0612 13.4657V12.926L18.4886 12.4627L18.7763 12.8932H18.7751L19.1795 13.4976C19.1889 13.511 19.2039 13.5323 19.2376 13.5323H19.5315C19.5496 13.5323 19.5675 13.5252 19.5803 13.513C19.5931 13.501 19.6016 13.4702 19.578 13.4404Z" fill="#D00070"/>
<path d="M17.0522 10.7474H17.092L17.1512 10.9217L17.2105 10.7474H17.2499V10.9536H17.2233V10.8316C17.2233 10.8274 17.2235 10.8209 17.2235 10.8108C17.2235 10.801 17.2241 10.791 17.2241 10.7796L17.165 10.9536H17.1371L17.0781 10.7796V10.7857V10.8087C17.0785 10.8196 17.0785 10.827 17.0785 10.8316V10.9536H17.0522V10.7474Z" fill="#D00070"/>
<path d="M17.4603 10.8417C17.4728 10.8417 17.483 10.8392 17.4908 10.8339C17.4976 10.8291 17.5018 10.8196 17.5018 10.8053C17.5018 10.791 17.4968 10.7808 17.486 10.7754C17.4803 10.7725 17.4728 10.7712 17.4639 10.7712H17.397V10.8417H17.4603ZM17.3692 10.7474H17.4634C17.4789 10.7474 17.4918 10.7496 17.5014 10.7542C17.5206 10.7627 17.5299 10.779 17.5299 10.8027C17.5299 10.815 17.5278 10.8252 17.5225 10.8332C17.517 10.8408 17.51 10.8476 17.5007 10.8523C17.5088 10.8558 17.5154 10.8598 17.5194 10.8651C17.5231 10.8704 17.5254 10.8794 17.5254 10.8914L17.527 10.9185C17.527 10.9268 17.528 10.9325 17.5288 10.9364C17.5307 10.9425 17.5336 10.9468 17.538 10.9486V10.9536H17.5038C17.5028 10.9514 17.5024 10.9494 17.5014 10.9468C17.5007 10.9439 17.5005 10.9385 17.5003 10.9305L17.4984 10.896C17.4974 10.8823 17.493 10.8732 17.4838 10.8688C17.4789 10.8663 17.4701 10.8651 17.459 10.8651H17.397V10.9536H17.3692V10.7474Z" fill="#D00070"/>
<path d="M17.3106 10.9525C17.3027 10.9525 17.2972 10.9466 17.2972 10.9375C17.2972 10.9285 17.3028 10.9223 17.3115 10.9223C17.3196 10.9223 17.3254 10.9285 17.3254 10.9375C17.3254 10.9466 17.3196 10.9525 17.3106 10.9525Z" fill="#D00070"/>
<path d="M17.593 10.9525C17.5848 10.9525 17.5788 10.9466 17.5788 10.9375C17.5788 10.9285 17.5848 10.9223 17.5933 10.9223C17.602 10.9223 17.6076 10.9285 17.6076 10.9375C17.6076 10.9466 17.6018 10.9525 17.593 10.9525Z" fill="#D00070"/>
<path d="M21.9758 5.57997V5.59355V5.59506V5.60927C21.974 6.22131 21.9091 6.8193 21.6763 7.24732C21.4475 7.6591 21.0797 7.9341 20.3651 7.94503C20.3605 7.94435 20.3529 7.94435 20.3384 7.94503H20.3266C19.6073 7.93779 19.2346 7.66217 19.0046 7.24664C18.7699 6.81691 18.7041 6.21387 18.7041 5.59813V5.56097C18.7048 4.94913 18.7699 4.4582 19.0046 4.03044C19.2346 3.61471 19.6073 3.33887 20.3266 3.33226H20.3315H20.3433H20.3542C21.074 3.33887 21.4453 3.61429 21.6772 4.03133C21.9102 4.4582 21.9758 4.94913 21.9758 5.56097V5.57997ZM22.1782 2.98913C22.1745 2.98476 22.1708 2.98018 22.166 2.97581C21.7765 2.61644 21.1535 2.39395 20.4315 2.39327C20.4219 2.39197 20.4069 2.39197 20.3929 2.39197C19.7992 2.39176 19.2136 2.51568 18.7048 2.9513L18.7041 2.95176V2.56944H18.7052V0.632812C18.7052 0.581705 18.6834 0.531378 18.6451 0.495779C18.6068 0.459452 18.5535 0.43853 18.4991 0.43853H17.825C17.7714 0.43853 17.7183 0.459452 17.6794 0.495779C17.6407 0.531378 17.6193 0.581705 17.6193 0.632812V2.56944L17.6197 6.68076L17.6193 8.60688C17.6193 8.65804 17.6414 8.70832 17.6794 8.74371C17.7181 8.78019 17.7714 8.80101 17.8256 8.80101H18.4993C18.5535 8.80101 18.6066 8.78019 18.6451 8.74371C18.6842 8.70832 18.7056 8.65804 18.7056 8.60688V8.20863C19.1553 8.71159 19.8007 8.8849 20.3929 8.88469H20.4344C21.1546 8.8823 21.7776 8.65981 22.166 8.30086C22.8921 7.6134 23.058 6.55965 23.0604 5.58017C23.0584 4.606 22.8921 3.67394 22.1782 2.98913Z" fill="#6D2077"/>
<path d="M28.185 5.71091C28.185 6.32269 28.1194 6.81363 27.8864 7.2405C27.6545 7.65758 27.2831 7.933 26.5634 7.93951H26.5524H26.5407H26.5358C25.8165 7.933 25.4438 7.65712 25.2138 7.24138C24.9791 6.81363 24.914 6.32269 24.9133 5.71091V5.67375C24.9133 5.05801 24.9791 4.45492 25.2138 4.02518C25.4438 3.60966 25.8165 3.33403 26.5358 3.32685H26.5476C26.5621 3.32747 26.5697 3.32747 26.5743 3.32685C27.2889 3.33773 27.6567 3.61273 27.8855 4.02456C28.1183 4.45252 28.1832 5.05057 28.185 5.66261V5.67682V5.67833V5.69186V5.71091ZM28.3874 8.28269C29.1013 7.59789 29.2676 6.66587 29.2696 5.69165C29.2672 4.71217 29.1013 3.65842 28.3752 2.97097C27.9868 2.61207 27.3638 2.38952 26.6436 2.38713H26.602C26.0099 2.38692 25.3645 2.56028 24.9148 3.06324V2.66495C24.9148 2.61379 24.8934 2.56356 24.8543 2.52812C24.8158 2.49164 24.7627 2.47087 24.7085 2.47087H24.0348C23.9806 2.47087 23.9273 2.49164 23.8886 2.52812C23.8505 2.56356 23.8285 2.61379 23.8285 2.66495V4.59112L23.8289 8.70238L23.8285 10.639C23.8285 10.6902 23.8499 10.7404 23.8886 10.776C23.9275 10.8123 23.9806 10.8333 24.0341 10.8333H24.7083C24.7627 10.8333 24.816 10.8123 24.8543 10.776C24.8925 10.7404 24.9144 10.6902 24.9144 10.639V8.70238H24.9133V8.32011L24.914 8.32053C25.4228 8.75614 26.0084 8.88011 26.602 8.87985C26.616 8.87985 26.6311 8.87985 26.6407 8.87855C27.3627 8.87793 27.9856 8.65538 28.3752 8.29607C28.38 8.2917 28.3837 8.28706 28.3874 8.28269Z" fill="#6D2077"/>
<path d="M38.0585 9.38906C37.9992 9.54962 37.8929 9.80875 37.822 9.96446C37.822 9.96446 37.6938 10.2466 37.5122 10.4287C37.3459 10.5947 37.1561 10.7094 36.9423 10.7728C36.7288 10.8361 36.5885 10.8459 36.5885 10.8459C36.4176 10.8578 36.1684 10.8676 36.0346 10.8676C35.9009 10.8676 35.7913 10.7275 35.7913 10.5565V10.0991C35.7913 9.92798 35.8609 9.78788 35.9457 9.78788C36.0307 9.78788 36.2393 9.77335 36.4095 9.75582C36.4095 9.75582 36.5391 9.74218 36.6577 9.65126C36.7765 9.55992 36.8364 9.42903 36.8364 9.42903C36.9078 9.27331 37.013 9.01397 37.0701 8.85258L37.1946 8.50076C37.2517 8.33937 37.2501 8.07582 37.1915 7.9151L35.3051 2.7592C35.2463 2.59843 35.3383 2.46687 35.5096 2.46687H36.1686C36.3397 2.46687 36.5248 2.59953 36.5797 2.76159L37.8154 6.40815C37.8706 6.57043 37.9592 6.57001 38.0131 6.40747L39.2178 2.76248C39.2716 2.59974 39.4556 2.46687 39.627 2.46687H40.2976C40.4689 2.46687 40.5605 2.59823 40.5014 2.75894L38.0585 9.38906Z" fill="#6D2077"/>
<path d="M30.8762 6.94057V6.92569C30.8796 6.59942 30.9791 6.39551 31.1663 6.25197C31.3621 6.10276 31.692 6.00621 32.186 6.00621H32.1902H33.8515V6.5238C33.8499 7.03149 33.7385 7.31212 33.5893 7.44306C33.229 7.775 32.783 7.82496 32.2393 7.82632H32.2334H32.2235C31.7001 7.82673 31.3564 7.73628 31.1616 7.59472C30.9761 7.46107 30.8809 7.27001 30.8762 6.94057ZM34.9699 4.56708V4.56255C34.9701 3.91896 34.7559 3.36713 34.3065 2.99829C33.8544 2.62701 33.2049 2.45261 32.3693 2.45214H32.339H32.3277C31.4496 2.44985 30.7529 2.6407 30.2222 3.20491L30.22 3.20309L30.1896 3.23952C30.1498 3.28345 30.1107 3.32935 30.0724 3.3777C30.0721 3.37817 30.0719 3.37884 30.0717 3.37931L30.0174 3.44364C29.9848 3.48215 29.9688 3.53389 29.9756 3.58588C29.9812 3.63813 30.0078 3.6883 30.0483 3.72338L30.0789 3.74992C30.0906 3.76387 30.1036 3.77693 30.118 3.78885L30.2367 3.88633L30.5526 4.15931C30.5929 4.19438 30.6462 4.21348 30.6978 4.21083C30.7493 4.2088 30.7972 4.18538 30.8299 4.14671L31.0324 3.90611C31.1589 3.76928 31.2887 3.67165 31.4455 3.603C31.667 3.50599 31.9512 3.46055 32.3619 3.4567L32.3669 3.4565L32.3806 3.45603C32.9648 3.45738 33.3283 3.5762 33.5362 3.75872C33.7437 3.93806 33.849 4.20968 33.8506 4.63145C33.8506 4.63411 33.8506 4.64176 33.8515 4.65123V5.04911H32.1173C31.4174 5.05067 30.8323 5.20868 30.4102 5.53792C29.9907 5.85992 29.7566 6.35543 29.7564 6.93292L29.7566 6.95473C29.7578 7.43588 29.9385 7.90735 30.2673 8.23502C30.711 8.67225 31.3024 8.83114 32.1958 8.83114H32.2058H32.6585C33.4767 8.83203 34.0636 8.62973 34.4418 8.22238C34.8189 7.81528 34.9701 7.22588 34.9701 6.4934V4.57811L34.9699 4.56708Z" fill="#6D2077"/>
<path d="M10.6565 2.47915C10.4776 2.47915 10.2914 2.62003 10.2426 2.79188L9.06438 6.94733C9.01556 7.1195 8.92985 7.12127 8.8739 6.95134L7.50362 2.78798C7.44788 2.61816 7.25583 2.47915 7.0769 2.47915H6.83115C6.65227 2.47915 6.46054 2.61821 6.40501 2.78824L5.04555 6.95108C4.99002 7.12111 4.9042 7.11976 4.85512 6.94765L3.66637 2.79194C3.61713 2.61988 3.43045 2.47915 3.25147 2.47915H2.75083C2.5721 2.47915 2.46998 2.61863 2.52391 2.78913L4.34206 8.52351C4.39619 8.69374 4.58662 8.83348 4.7656 8.83348H5.10946C5.26913 8.83348 5.44125 8.70962 5.49194 8.55827L6.85108 4.50217C6.90797 4.33261 7.00118 4.33261 7.05848 4.50197L8.41705 8.52533C8.47446 8.69468 8.66765 8.83348 8.84637 8.83348H9.17919C9.3448 8.83348 9.52107 8.70426 9.57083 8.5462L11.3845 2.78933C11.4382 2.61863 11.3359 2.47915 11.1571 2.47915L10.6565 2.47915Z" fill="#6D2077"/>
<path d="M16.8489 5.45568C16.8489 3.56969 15.8482 2.39806 14.2375 2.39806C12.6024 2.39806 11.6262 3.60612 11.6262 5.62946C11.6262 7.71312 12.6109 8.86081 14.3987 8.86081C15.5092 8.86081 16.1049 8.48827 16.7062 7.88731L16.7862 7.80732L16.0188 7.13366L15.9485 7.20376C15.4585 7.69371 15.0594 7.86722 14.4236 7.86722C13.3648 7.86722 12.7651 7.19429 12.7327 5.97113H16.8489V5.45568ZM12.7372 5.08924C12.7595 4.69386 12.7881 4.5169 12.909 4.21983C13.1312 3.69366 13.6403 3.36687 14.2375 3.36687C14.8347 3.36687 15.3436 3.6934 15.5657 4.21895C15.687 4.5169 15.7155 4.69386 15.7379 5.08924H12.7372Z" fill="#6D2077"/>
<path d="M1.16633 3.7951C1.52326 3.7951 1.8131 3.50375 1.8131 3.14438C1.8131 2.78502 1.52326 2.49346 1.16633 2.49346C0.810237 2.49346 0.520416 2.78502 0.520416 3.14438C0.520416 3.50375 0.810237 3.7951 1.16633 3.7951Z" fill="#D00070"/>
<path d="M40.4684 8.82979C40.8256 8.82979 41.1152 8.53839 41.1152 8.17928C41.1152 7.81971 40.8256 7.52789 40.4684 7.52789C40.1122 7.52789 39.823 7.81971 39.823 8.17928C39.823 8.53839 40.1122 8.82979 40.4684 8.82979Z" fill="#D00070"/>
</g>
<defs>
<clipPath id="clip0_3_8">
<rect width="41.6357" height="14" fill="white"/>
</clipPath>
</defs>
</svg>
