<svg width="170" height="35" viewBox="0 0 170 35" fill="none" xmlns="http://www.w3.org/2000/svg">
<path d="M29.5642 7.80487L19.6814 2.01194C16.9302 0.399339 13.5237 0.399339 10.7726 2.01194L0.889774 7.80487C0.338661 8.12791 0 8.71929 0 9.35862V9.55497C0 9.98259 0.00940799 10.4089 0.0280783 10.8336H22.4398V18.2547L12.0213 33.0723C12.7619 33.6068 13.5315 34.109 14.3288 34.5763C14.8835 34.9015 15.5704 34.9015 16.1251 34.5763C25.0002 29.3741 30.454 19.8506 30.454 9.55497V9.35862C30.454 8.71929 30.1153 8.12791 29.5642 7.80487Z" fill="url(#paint0_linear_0_3)"/>
<path d="M1.21103 17.8536C2.25763 21.3602 3.95735 24.6325 6.211 27.4972L12.8227 17.8536H1.21103Z" fill="url(#paint1_linear_0_3)"/>
<path d="M170 8.44838L159.503 34.4638H157.138L160.572 26.0404L153.315 8.44838H155.81L161.836 23.5458L167.667 8.44838H170Z" fill="#4653E3"/>
<path d="M132.522 17.2606C132.522 15.4463 132.878 13.8588 133.591 12.4981C134.326 11.1158 135.33 10.0575 136.604 9.32312C137.9 8.56717 139.358 8.1892 140.978 8.1892C142.663 8.1892 144.11 8.57797 145.319 9.35552C146.55 10.1331 147.436 11.1266 147.976 12.3361V8.44838H150.244V26.1376H147.976V22.2175C147.414 23.427 146.518 24.4313 145.287 25.2305C144.077 26.008 142.63 26.3968 140.945 26.3968C139.347 26.3968 137.9 26.0188 136.604 25.2629C135.33 24.5069 134.326 23.4378 133.591 22.0555C132.878 20.6732 132.522 19.0749 132.522 17.2606ZM147.976 17.293C147.976 15.8675 147.684 14.6148 147.101 13.5348C146.518 12.4549 145.719 11.6234 144.704 11.0402C143.71 10.457 142.609 10.1655 141.399 10.1655C140.146 10.1655 139.023 10.4462 138.03 11.0078C137.036 11.5694 136.248 12.3901 135.665 13.47C135.103 14.5284 134.822 15.7919 134.822 17.2606C134.822 18.7077 135.103 19.982 135.665 21.0835C136.248 22.1635 137.036 22.995 138.03 23.5782C139.023 24.1397 140.146 24.4205 141.399 24.4205C142.609 24.4205 143.71 24.1289 144.704 23.5458C145.719 22.9626 146.518 22.1311 147.101 21.0511C147.684 19.9712 147.976 18.7185 147.976 17.293Z" fill="#4653E3"/>
<path d="M113.932 12.3361C114.494 11.1482 115.379 10.1655 116.589 9.38792C117.82 8.58877 119.278 8.1892 120.962 8.1892C122.561 8.1892 123.997 8.56717 125.271 9.32312C126.567 10.0575 127.572 11.1158 128.284 12.4981C129.019 13.8588 129.386 15.4463 129.386 17.2606C129.386 19.0749 129.019 20.6732 128.284 22.0555C127.572 23.4378 126.567 24.5069 125.271 25.2629C123.997 26.0188 122.561 26.3968 120.962 26.3968C119.299 26.3968 117.852 26.008 116.621 25.2305C115.39 24.4313 114.494 23.4378 113.932 22.2499V34.4962H111.697V8.44838H113.932V12.3361ZM127.086 17.2606C127.086 15.7919 126.794 14.5284 126.211 13.47C125.649 12.3901 124.872 11.5694 123.878 11.0078C122.885 10.4462 121.762 10.1655 120.509 10.1655C119.299 10.1655 118.187 10.457 117.172 11.0402C116.178 11.6234 115.39 12.4549 114.807 13.5348C114.224 14.6148 113.932 15.8675 113.932 17.293C113.932 18.7185 114.224 19.9712 114.807 21.0511C115.39 22.1311 116.178 22.9626 117.172 23.5458C118.187 24.1289 119.299 24.4205 120.509 24.4205C121.762 24.4205 122.885 24.1397 123.878 23.5782C124.872 22.995 125.649 22.1635 126.211 21.0835C126.794 19.982 127.086 18.7077 127.086 17.2606Z" fill="#4653E3"/>
<path d="M107.9 16.7747C107.9 17.4442 107.857 18.049 107.77 18.589H94.1309C94.2389 20.0145 94.768 21.1592 95.7184 22.0231C96.6687 22.8871 97.835 23.319 99.2173 23.319C101.204 23.319 102.608 22.4875 103.429 20.8244H107.414C106.874 22.4659 105.891 23.8158 104.466 24.8741C103.062 25.9109 101.312 26.4292 99.2173 26.4292C97.511 26.4292 95.9776 26.0513 94.6168 25.2953C93.2777 24.5178 92.2194 23.4378 91.4419 22.0555C90.6859 20.6516 90.3079 19.0317 90.3079 17.1958C90.3079 15.36 90.6751 13.7509 91.4095 12.3686C92.1654 10.9647 93.2129 9.88474 94.5521 9.12879C95.9128 8.37284 97.4679 7.99486 99.2173 7.99486C100.902 7.99486 102.403 8.36204 103.721 9.09639C105.038 9.83074 106.064 10.8675 106.798 12.2066C107.533 13.5241 107.9 15.0468 107.9 16.7747ZM104.045 15.6084C104.023 14.2476 103.537 13.1569 102.587 12.3362C101.636 11.5154 100.459 11.1051 99.0553 11.1051C97.781 11.1051 96.6903 11.5154 95.7832 12.3362C94.876 13.1353 94.3361 14.226 94.1633 15.6084H104.045Z" fill="#4653E3"/>
<path d="M88.2659 11.2994H84.9613V26.1376H81.2355V11.2994H79.1297V8.28641H81.2355V7.0229C81.2355 4.97103 81.7755 3.48073 82.8554 2.552C83.9569 1.60166 85.674 1.12649 88.0067 1.12649V4.20429C86.8836 4.20429 86.0952 4.42027 85.6416 4.85224C85.1881 5.26262 84.9613 5.98617 84.9613 7.0229V8.28641H88.2659V11.2994Z" fill="#4653E3"/>
<path d="M57.5938 17.1311C57.5938 15.3384 57.9609 13.7509 58.6953 12.3686C59.4512 10.9863 60.4664 9.91713 61.7407 9.16118C63.0366 8.38364 64.4621 7.99486 66.0172 7.99486C67.4211 7.99486 68.6414 8.27564 69.6782 8.83721C70.7365 9.37717 71.5788 10.0575 72.2052 10.8783V8.28645H75.9309V26.1377H72.2052V23.481C71.5788 24.3234 70.7257 25.0253 69.6458 25.5869C68.5658 26.1485 67.3347 26.4292 65.9524 26.4292C64.4189 26.4292 63.015 26.0405 61.7407 25.2629C60.4664 24.4638 59.4512 23.3622 58.6953 21.9583C57.9609 20.5328 57.5938 18.9237 57.5938 17.1311ZM72.2052 17.1958C72.2052 15.9647 71.946 14.8956 71.4276 13.9885C70.9309 13.0813 70.2721 12.3902 69.4514 11.915C68.6306 11.4398 67.7451 11.2022 66.7948 11.2022C65.8444 11.2022 64.9589 11.4398 64.1381 11.915C63.3174 12.3686 62.6478 13.0489 62.1295 13.9561C61.6327 14.8416 61.3843 15.8999 61.3843 17.1311C61.3843 18.3622 61.6327 19.4421 62.1295 20.3708C62.6478 21.2996 63.3174 22.0123 64.1381 22.5091C64.9805 22.9843 65.866 23.2218 66.7948 23.2218C67.7451 23.2218 68.6306 22.9843 69.4514 22.5091C70.2721 22.0339 70.9309 21.3428 71.4276 20.4356C71.946 19.5069 72.2052 18.427 72.2052 17.1958Z" fill="#4653E3"/>
<path d="M46.8473 23.1246H54.9467V26.1376H42.5707V23.1246L50.7026 11.2994H42.5707V8.28641H54.9467V11.2994L46.8473 23.1246Z" fill="#4653E3"/>
<defs>
<linearGradient id="paint0_linear_0_3" x1="12.1492" y1="15.2195" x2="-23.8124" y2="50.0472" gradientUnits="userSpaceOnUse">
<stop stop-color="#4653E3"/>
<stop offset="1" stop-color="#4653E3" stop-opacity="0"/>
</linearGradient>
<linearGradient id="paint1_linear_0_3" x1="12.1492" y1="15.2195" x2="-23.8124" y2="50.0472" gradientUnits="userSpaceOnUse">
<stop stop-color="#4653E3"/>
<stop offset="1" stop-color="#4653E3" stop-opacity="0"/>
</linearGradient>
</defs>
</svg>
